<svg
    width="21"
    height="18"
    xmlns="http://www.w3.org/2000/svg"
    viewBox="0 0 21 18"
    fill="#ff3040"
    >
    <g id="Camada_2" data-name="Camada 2">
        <g id="Camada_1-2" data-name="Camada 1">
        <path
            className="cls-1"
            d="M20,4.38A5.76,5.76,0,0,0,18.41,1.6,5.26,5.26,0,0,0,15.65.1a6.39,6.39,0,0,0-2.09,0,5.59,5.59,0,0,0-3.36,2.2l-.11.14L10,2.28A5.64,5.64,0,0,0,6.7.1,6.6,6.6,0,0,0,5,0,5.22,5.22,0,0,0,1.77,1.6,5.76,5.76,0,0,0,.21,4.38a6.86,6.86,0,0,0,1,5.61,19.82,19.82,0,0,0,3.52,3.79c1.13,1,4.6,4,4.77,4.08a.84.84,0,0,0,.55.11.84.84,0,0,0,.55-.11c.17-.1,3.65-3.07,4.77-4.08A19.79,19.79,0,0,0,18.93,10,6.86,6.86,0,0,0,20,4.38Z"
        />
        </g>
    </g>
    </svg>